<svg width="150px" height="150px" viewBox="0 0 150 150" version="1.1" xmlns="http://www.w3.org/2000/svg" xmlns:xlink="http://www.w3.org/1999/xlink"><path d="M69.269 11.278 C 64.137 11.734,57.867 13.126,53.105 14.867 C 47.140 17.047,39.294 21.506,34.625 25.366 C 21.692 36.061,13.889 50.121,11.451 67.125 C 11.028 70.074,11.028 79.926,11.451 82.875 C 13.575 97.684,19.467 109.747,29.568 119.964 C 39.771 130.283,52.130 136.399,67.125 138.549 C 68.431 138.736,71.735 138.872,75.000 138.872 C 78.265 138.872,81.569 138.736,82.875 138.549 C 97.860 136.400,110.237 130.275,120.432 119.964 C 130.514 109.766,136.429 97.657,138.549 82.875 C 138.972 79.926,138.972 70.074,138.549 67.125 C 137.343 58.715,134.871 51.076,131.186 44.375 C 125.957 34.866,118.243 26.655,109.103 20.871 C 106.265 19.075,100.103 16.046,96.895 14.870 C 88.437 11.768,78.420 10.465,69.269 11.278 M83.848 16.629 C 90.268 17.622,95.784 19.349,101.375 22.119 C 107.753 25.279,112.498 28.749,117.512 33.919 C 126.328 43.012,131.457 53.640,133.534 67.125 C 133.949 69.819,133.949 78.769,133.533 81.750 C 132.210 91.239,129.271 99.135,124.214 106.789 C 123.138 108.418,122.213 109.750,122.159 109.750 C 122.104 109.750,121.748 109.134,121.367 108.380 C 120.367 106.404,117.831 103.363,115.710 101.596 C 105.849 93.378,89.108 88.462,73.125 89.089 C 56.214 89.752,41.047 94.909,33.151 102.679 C 31.373 104.429,29.184 107.484,28.901 108.610 C 28.813 108.962,28.658 109.250,28.558 109.250 C 28.219 109.249,25.218 104.493,23.618 101.421 C 15.044 84.968,14.857 65.272,23.116 48.625 C 26.285 42.239,29.752 37.498,34.919 32.488 C 44.734 22.971,57.144 17.390,71.250 16.149 C 73.486 15.952,81.430 16.255,83.848 16.629 M71.935 36.378 C 62.372 38.192,55.145 45.243,53.396 54.465 C 51.503 64.454,56.821 74.485,66.344 78.884 C 69.615 80.396,71.899 80.864,76.000 80.864 C 78.992 80.864,79.993 80.764,81.733 80.293 C 97.026 76.155,103.810 59.082,95.247 46.287 C 92.074 41.547,87.161 38.082,81.704 36.738 C 78.936 36.057,74.494 35.893,71.935 36.378 " fill="#000000" stroke="none" fill-rule="evenodd"></path></svg>