<svg version="1.1" xmlns="http://www.w3.org/2000/svg" width="32" height="32" viewBox="0 0 32 32"><path d="M2.281 5.223 C 1.684 5.415,1.103 5.906,0.859 6.427 C 0.582 7.015,0.587 6.925,0.587 12.057 C 0.587 15.087,0.607 16.944,0.641 17.126 C 0.765 17.778,1.211 18.425,1.767 18.758 C 2.254 19.049,2.540 19.093,3.931 19.093 C 5.117 19.093,5.173 19.098,5.173 19.195 C 5.173 19.251,5.077 19.975,4.959 20.804 C 4.842 21.634,4.761 22.362,4.779 22.423 C 4.829 22.589,4.966 22.726,5.165 22.810 C 5.447 22.930,5.643 22.832,6.017 22.384 C 6.194 22.173,6.935 21.328,7.664 20.507 L 8.990 19.013 9.748 18.999 L 10.507 18.984 10.507 19.967 C 10.507 21.036,10.563 21.350,10.842 21.826 C 11.044 22.170,11.527 22.597,11.933 22.789 L 12.293 22.960 17.640 22.974 L 22.987 22.989 24.401 24.583 C 25.179 25.460,25.925 26.310,26.059 26.473 C 26.352 26.828,26.569 26.923,26.835 26.810 C 27.106 26.696,27.224 26.533,27.224 26.276 C 27.224 26.153,27.134 25.427,27.025 24.661 C 26.916 23.895,26.827 23.229,26.827 23.181 C 26.827 23.102,26.954 23.093,28.069 23.093 C 29.460 23.093,29.746 23.049,30.233 22.758 C 30.789 22.425,31.235 21.778,31.359 21.126 C 31.437 20.715,31.433 11.512,31.355 11.136 C 31.203 10.407,30.680 9.752,29.989 9.425 L 29.627 9.253 25.573 9.227 L 21.520 9.200 21.491 8.080 C 21.466 7.079,21.450 6.927,21.341 6.654 C 21.103 6.054,20.678 5.612,20.053 5.313 L 19.707 5.147 11.147 5.136 C 2.961 5.125,2.573 5.129,2.281 5.223 M19.501 6.438 C 19.801 6.599,20.049 6.858,20.179 7.146 C 20.273 7.356,20.287 7.501,20.290 8.293 L 20.293 9.200 16.240 9.227 C 12.389 9.252,12.175 9.258,11.947 9.356 C 11.217 9.669,10.729 10.198,10.507 10.918 C 10.405 11.249,10.400 11.410,10.400 14.539 L 10.400 17.813 6.730 17.813 C 2.658 17.813,2.718 17.818,2.309 17.468 C 2.188 17.364,2.027 17.155,1.951 17.003 L 1.813 16.726 1.814 12.056 L 1.814 7.387 1.940 7.117 C 2.092 6.790,2.444 6.476,2.772 6.375 C 2.975 6.312,4.292 6.301,11.147 6.310 L 19.280 6.320 19.501 6.438 M29.113 10.376 C 29.465 10.481,29.791 10.769,29.955 11.120 L 30.079 11.387 30.079 16.053 L 30.079 20.720 29.953 20.990 C 29.884 21.139,29.724 21.348,29.596 21.458 C 29.154 21.836,29.706 21.813,20.853 21.813 C 11.924 21.813,12.519 21.839,12.080 21.434 C 11.953 21.317,11.799 21.115,11.738 20.985 C 11.628 20.750,11.627 20.703,11.627 16.052 C 11.627 10.866,11.605 11.188,11.977 10.776 C 12.190 10.541,12.402 10.408,12.667 10.343 C 12.755 10.322,16.428 10.302,20.830 10.299 C 27.929 10.294,28.866 10.303,29.113 10.376 " stroke="none" fill-rule="evenodd" fill="black"></path></svg>