<svg width="24" height="24" viewBox="0 0 24 24" fill="none" xmlns="http://www.w3.org/2000/svg"><path d="M3.731 2.060 C 3.138 2.189,2.511 2.673,2.251 3.203 C 2.004 3.707,1.996 3.795,2.009 5.932 L 2.020 7.860 2.144 8.080 C 2.533 8.770,3.405 8.867,3.933 8.279 C 4.220 7.960,4.240 7.834,4.241 6.337 C 4.242 5.182,4.249 5.044,4.316 4.897 C 4.424 4.659,4.616 4.459,4.850 4.343 L 5.056 4.240 12.000 4.240 L 18.944 4.240 19.150 4.343 C 19.384 4.459,19.576 4.659,19.684 4.897 C 19.755 5.053,19.758 5.339,19.759 12.002 L 19.760 18.944 19.657 19.150 C 19.539 19.389,19.341 19.576,19.082 19.696 L 18.900 19.780 12.000 19.780 L 5.100 19.780 4.918 19.696 C 4.659 19.576,4.461 19.389,4.343 19.150 L 4.240 18.944 4.240 17.665 C 4.240 16.186,4.219 16.043,3.950 15.738 C 3.717 15.473,3.455 15.353,3.112 15.353 C 2.655 15.353,2.335 15.551,2.108 15.975 C 2.021 16.138,2.020 16.168,2.009 18.068 C 1.999 19.654,2.008 20.040,2.056 20.248 C 2.256 21.104,2.888 21.740,3.740 21.942 C 4.112 22.030,19.901 22.027,20.276 21.939 C 20.876 21.797,21.446 21.357,21.729 20.816 C 22.018 20.264,21.999 20.901,21.999 12.000 C 21.999 3.099,22.018 3.736,21.729 3.184 C 21.440 2.633,20.854 2.187,20.250 2.059 C 19.859 1.976,4.113 1.977,3.731 2.060 M11.056 6.973 C 10.595 7.147,10.273 7.655,10.335 8.110 C 10.389 8.502,10.470 8.606,11.630 9.769 L 12.737 10.879 7.798 10.889 L 2.860 10.900 2.631 11.012 C 1.793 11.424,1.793 12.576,2.631 12.988 L 2.860 13.100 7.790 13.120 L 12.721 13.140 11.636 14.220 C 10.505 15.346,10.394 15.487,10.337 15.864 C 10.299 16.120,10.419 16.485,10.614 16.706 C 10.835 16.957,11.105 17.079,11.440 17.079 C 11.917 17.079,11.877 17.113,14.245 14.734 C 16.636 12.333,16.544 12.447,16.513 11.932 C 16.504 11.782,16.463 11.588,16.422 11.500 C 16.371 11.392,15.658 10.650,14.244 9.232 C 11.899 6.883,11.942 6.918,11.440 6.923 C 11.297 6.925,11.124 6.947,11.056 6.973 " fill="#101523" stroke="none" fill-rule="evenodd"></path></svg>